<svg version="1.0" viewBox="0 0 100 100" preserveAspectRatio="xMidYMid meet" width="100%" height="100%"
  xmlns:svg="http://www.w3.org/2000/svg">
  <g fill="currentColor" stroke="none" id="g6"
    transform="matrix(-0.62331875,0.60606061,-0.62331875,-0.60606061,115.95696,50)">
    <path
      d="M 83.5,91.7 76.5,89.4 76.2,84 75.9,78.5 56.7,59.3 C 41.5,44 37.8,39.8 38.8,38.8 c 1,-1 5.2,2.7 20.5,17.9 l 19.2,19.2 5.5,0.3 5.5,0.3 1.8,5.5 c 2.4,7.4 2.6,11.4 0.7,11.7 -0.8,0.1 -4.6,-0.8 -8.5,-2 z"
      id="path2" />
    <path
      d="M 14.6,31.1 C 9.6,26 6,21.7 6.4,21.1 6.8,20.5 9.4,20 12.2,20 h 5.2 l -2.9,-3 c -2.2,-2.3 -2.6,-3.3 -1.7,-4.2 0.9,-0.9 1.9,-0.5 4.2,1.7 l 3,2.9 v -5.2 c 0,-2.8 0.5,-5.4 1.1,-5.8 0.6,-0.4 4.9,3.2 10,8.2 l 8.9,8.9 v 7 7 l -10,-10 c -7.9,-7.9 -10.2,-9.7 -11.2,-8.7 -1,1 0.8,3.3 8.7,11.2 l 10,10 h -7 -7 z"
      id="path4" />
  </g>
</svg>